<svg width="149" height="149" viewBox="0 0 149 149" fill="none" xmlns="http://www.w3.org/2000/svg">
<path d="M16.3527 111.241C16.7837 113.113 17.6995 114.84 19.0082 116.246C20.3169 117.653 21.9725 118.691 23.8089 119.256L24.9264 124.167H24.8333V136.583H124.167V124.167H41.4902C41.5717 123.593 41.557 123.01 41.4468 122.441L40.2299 117.083L104.53 102.456L105.746 107.814C106.071 109.235 106.946 110.47 108.18 111.246C109.414 112.023 110.906 112.278 112.327 111.955L117.685 110.732C118.389 110.572 119.055 110.275 119.645 109.858C120.234 109.44 120.735 108.911 121.12 108.3C121.504 107.689 121.765 107.008 121.886 106.296C122.007 105.584 121.987 104.855 121.826 104.151L120.268 97.3033C123.037 94.7206 124.427 90.8094 123.527 86.8547L119.864 70.7751C119.42 68.8379 118.455 67.0586 117.075 65.6288C115.694 64.199 113.95 63.1728 112.029 62.6608L99.3084 41.689C97.4325 38.6078 94.6365 36.1934 91.3148 34.7865C87.9931 33.3796 84.3135 33.0513 80.7952 33.8479L31.948 44.9608C28.4259 45.7587 25.2445 47.6454 22.8553 50.3534C20.466 53.0614 18.9902 56.453 18.6373 60.0471L16.2347 84.4582C14.7278 85.7522 13.602 87.4324 12.9785 89.3182C12.355 91.2041 12.2573 93.2242 12.696 95.1614L16.3527 111.241ZM35.1018 106.97C34.0464 107.21 32.954 107.24 31.8869 107.059C30.8198 106.877 29.799 106.487 28.8826 105.911C27.9663 105.335 27.1724 104.584 26.5463 103.701C25.9202 102.818 25.4742 101.82 25.2337 100.764C24.9932 99.709 24.9629 98.6166 25.1446 97.5495C25.3263 96.4824 25.7163 95.4616 26.2925 94.5452C26.8688 93.6289 27.6198 92.835 28.5028 92.2089C29.3858 91.5828 30.3835 91.1368 31.4389 90.8963C33.5704 90.4106 35.8075 90.7914 37.6581 91.9551C39.5088 93.1188 40.8213 94.9701 41.3071 97.1015C41.7928 99.233 41.4119 101.47 40.2482 103.321C39.0845 105.171 37.2333 106.484 35.1018 106.97ZM104.772 91.126C103.698 91.4211 102.576 91.4957 101.473 91.3454C100.37 91.195 99.3089 90.8229 98.3536 90.2513C97.3982 89.6798 96.5686 88.9206 95.9145 88.0197C95.2605 87.1188 94.7957 86.0948 94.5482 85.0094C94.3007 83.924 94.2755 82.7998 94.4743 81.7044C94.673 80.609 95.0915 79.5652 95.7046 78.636C96.3176 77.7067 97.1125 76.9113 98.0413 76.2975C98.9701 75.6838 100.014 75.2646 101.109 75.065C103.198 74.6844 105.354 75.1247 107.127 76.2943C108.899 77.4638 110.153 79.2723 110.625 81.343C111.097 83.4136 110.752 85.5866 109.662 87.4091C108.571 89.2316 106.82 90.5631 104.772 91.126ZM34.6983 57.0671L83.5517 45.948C84.5306 45.7268 85.5542 45.8181 86.4785 46.2089C87.4029 46.5998 88.1814 47.2707 88.7046 48.1271L98.5448 64.3495L95.0309 65.1503L32.662 79.3488L29.1356 80.1497L30.9919 61.2639C31.0919 60.2642 31.5035 59.3211 32.1685 58.568C32.8336 57.8149 33.7186 57.2899 34.6983 57.0671ZM114.264 24.8334L105.542 12.4167L102.437 31.0417L117.958 55.8751L136.583 62.0834L124.167 46.3205L136.583 40.5281L124.167 34.7357L136.583 12.4167L114.264 24.8334Z" fill="#203D7A"/>
</svg>
