<svg width="149" height="149" viewBox="0 0 149 149" fill="none" xmlns="http://www.w3.org/2000/svg">
<path d="M121.368 73.5737L114.059 51.612C112.999 48.4145 110.959 45.633 108.23 43.6627C105.502 41.6924 102.222 40.6335 98.8584 40.6365H50.1416C46.7776 40.6335 43.4982 41.6924 40.7694 43.6627C38.0406 45.633 36.0012 48.4145 34.9409 51.612L27.6318 73.5737C25.6882 74.3882 24.0283 75.7601 22.8609 77.5167C21.6935 79.2734 21.0707 81.3366 21.0707 83.4468V110.203C21.0707 114.152 23.2292 117.567 26.4136 119.424V131.608C26.4136 133.028 26.9765 134.389 27.9785 135.392C28.9805 136.396 30.3395 136.96 31.7565 136.96H37.0995C38.5165 136.96 39.8755 136.396 40.8775 135.392C41.8795 134.389 42.4424 133.028 42.4424 131.608V120.906H106.558V131.608C106.558 133.028 107.12 134.389 108.122 135.392C109.124 136.396 110.483 136.96 111.9 136.96H117.243C118.66 136.96 120.019 136.396 121.021 135.392C122.023 134.389 122.586 133.028 122.586 131.608V119.424C124.207 118.492 125.555 117.15 126.493 115.531C127.431 113.913 127.926 112.075 127.929 110.203V83.4468C127.929 81.3366 127.306 79.2734 126.139 77.5167C124.972 75.7601 123.312 74.3882 121.368 73.5737ZM50.1416 51.3391H98.853C101.156 51.3391 103.197 52.8053 103.923 54.9993L109.833 72.7442H39.1672L45.0711 54.9993C45.4256 53.9333 46.1061 53.0061 47.0162 52.3492C47.9263 51.6922 49.0197 51.3388 50.1416 51.3391ZM39.7709 104.852C38.7181 104.852 37.6757 104.644 36.7031 104.24C35.7306 103.836 34.847 103.244 34.1028 102.498C33.3586 101.752 32.7683 100.867 32.3658 99.8927C31.9632 98.9183 31.7562 97.8741 31.7565 96.8197C31.7569 95.7652 31.9646 94.7211 32.3678 93.7471C32.771 92.773 33.3619 91.888 34.1066 91.1427C34.8513 90.3973 35.7353 89.8061 36.7081 89.4029C37.6809 88.9997 38.7235 88.7924 39.7763 88.7927C41.9025 88.7934 43.9414 89.6401 45.4444 91.1464C46.9474 92.6528 47.7914 94.6954 47.7907 96.825C47.79 98.9546 46.9446 100.997 45.4406 102.502C43.9366 104.007 41.8972 104.853 39.7709 104.852ZM109.229 104.852C108.176 104.852 107.134 104.644 106.161 104.24C105.189 103.836 104.305 103.244 103.561 102.498C102.817 101.752 102.226 100.867 101.824 99.8927C101.421 98.9183 101.214 97.8741 101.215 96.8197C101.215 95.7652 101.423 94.7211 101.826 93.7471C102.229 92.773 102.82 91.888 103.565 91.1427C104.309 90.3973 105.193 89.8061 106.166 89.4029C107.139 88.9997 108.182 88.7924 109.234 88.7927C111.361 88.7934 113.399 89.6401 114.902 91.1464C116.405 92.6528 117.249 94.6954 117.249 96.825C117.248 98.9546 116.403 100.997 114.899 102.502C113.395 104.007 111.355 104.853 109.229 104.852Z" fill="#203D7A"/>
<path d="M98.5808 21.7156L92.8027 36.8736H59.0969L52.6768 24.9407L64.233 32.036L67.1221 3.01001L77.0733 29.7784L87.3455 11.7178L84.4565 29.7784L98.5808 21.7156Z" fill="#203D7A"/>
</svg>
