<svg width="149" height="149" viewBox="0 0 149 149" fill="none" xmlns="http://www.w3.org/2000/svg">
<path d="M105.82 86.3193C103.929 79.4643 99.841 73.4189 94.1835 69.1107C88.5259 64.8025 81.6112 62.4695 74.5001 62.4695C67.3889 62.4695 60.4742 64.8025 54.8167 69.1107C49.1591 73.4189 45.0713 79.4643 43.1803 86.3193L38.6739 102.655C37.8648 105.588 37.744 108.669 38.3211 111.656C38.8982 114.644 40.1575 117.457 42.0009 119.878C43.8442 122.299 46.2217 124.261 48.9481 125.612C51.6745 126.962 54.676 127.665 57.7186 127.665H91.2815C94.3241 127.665 97.3256 126.962 100.052 125.612C102.778 124.261 105.156 122.299 106.999 119.878C108.843 117.457 110.102 114.644 110.679 111.656C111.256 108.669 111.135 105.588 110.326 102.655L105.82 86.3193Z" fill="#203D7A"/>
<path d="M47.3599 67.9793C48.0475 63.6824 47.1357 59.0824 44.7916 55.0234C42.4476 50.9645 38.9191 47.8749 34.855 46.3218C30.5027 44.6596 26.0635 44.9243 22.3508 47.0669C14.9701 51.3283 13.0278 61.8309 18.0219 70.4792C20.3653 74.5382 23.894 77.6285 27.9581 79.1809C29.7584 79.8825 31.672 80.2483 33.6042 80.2603C36.0113 80.269 38.3778 79.6394 40.4623 78.4356C44.1728 76.2928 46.6225 72.5793 47.3599 67.9793Z" fill="#203D7A"/>
<path d="M48.2159 51.6071C51.0217 53.8502 54.226 55.0183 57.4662 55.018C58.4368 55.0177 59.4046 54.9133 60.3529 54.7066C68.6809 52.8962 73.7303 43.4844 71.609 33.726C70.6138 29.146 68.1941 25.1279 64.796 22.4111C61.1572 19.502 56.8469 18.4009 52.659 19.3116C44.3313 21.1218 39.2819 30.5337 41.4029 40.292C42.3984 44.8722 44.818 48.8904 48.2159 51.6071Z" fill="#203D7A"/>
<path d="M126.649 47.0669C122.938 44.9243 118.497 44.6596 114.145 46.3218C110.081 47.8744 106.552 50.9645 104.209 55.0234C101.866 59.0824 100.954 63.6833 101.641 67.9793C102.377 72.5793 104.826 76.2928 108.538 78.4356C110.623 79.6395 112.989 80.2691 115.396 80.2603C117.329 80.2483 119.242 79.8825 121.043 79.1809C125.107 77.6285 128.635 74.5382 130.979 70.4792C135.972 61.8309 134.03 51.3283 126.649 47.0669Z" fill="#203D7A"/>
<path d="M88.6473 54.7082C89.5956 54.9149 90.5634 55.0193 91.5339 55.0196C94.774 55.0196 97.9794 53.8517 100.784 51.6087C104.182 48.8922 106.602 44.8738 107.597 40.2938C109.718 30.5354 104.669 21.1236 96.3411 19.3134C92.1535 18.4031 87.843 19.5036 84.2041 22.4129C80.8061 25.1294 78.3864 29.1478 77.3912 33.7275C75.2699 43.4859 80.3193 52.8978 88.6473 54.7082Z" fill="#203D7A"/>
</svg>
