<svg width="131" height="131" viewBox="0 0 131 131" fill="none" xmlns="http://www.w3.org/2000/svg">
<path d="M45.7893 119.57C23.5962 107.083 17.7532 95.2637 21.0938 79.121C23.56 67.2011 31.6353 57.5031 32.4097 45.606C35.8592 51.8732 37.3006 56.3923 37.686 62.9414C48.6574 49.5216 55.9074 30.944 56.3367 11.4294C56.3367 11.4294 84.913 28.1922 86.7881 53.5125C89.2482 48.2935 90.4865 40.0046 88.0265 34.6325C95.4065 40.0049 138.602 87.6971 82.1756 119.57C92.7844 98.9481 84.9125 71.1222 66.4927 58.2709C67.7228 63.7968 65.5661 84.4068 57.417 93.4631C59.675 78.3309 55.2687 71.9324 55.2687 71.9324C55.2687 71.9324 53.7564 80.4083 47.8886 88.9705C42.5304 96.7892 38.8177 105.088 45.7893 119.57Z" fill="#203D7A"/>
</svg>
