<svg width="149" height="149" viewBox="0 0 149 149" fill="none" xmlns="http://www.w3.org/2000/svg">
<path d="M99.5297 80.0353C115.584 67.4549 130.75 55.5748 130.75 21.729C130.75 9.48218 95.6586 6.21116 74.8993 6.20825C74.887 6.20825 74.8629 6.20825 74.8507 6.20825C54.0916 6.21116 19 9.48218 19 21.729C19 27.7464 24.2898 32.6028 30.4134 38.2229C38.1585 45.3316 46.9376 53.3893 46.9376 65.1876C46.9376 75.6613 44.8457 79.6808 42.6328 83.934C40.8777 87.3049 38.8892 91.1245 38.0554 97.86C37.8523 99.488 38.9497 100.991 40.5626 101.292C44.6641 102.062 48.7776 102.438 53.1461 102.438C54.8587 102.438 56.2504 103.829 56.2504 105.542C56.2504 107.255 54.859 108.646 53.1461 108.646C49.2779 108.646 45.3888 108.352 41.5933 107.776C40.6475 107.637 39.6502 107.946 38.95 108.631C38.2528 109.319 37.9193 110.292 38.0496 111.262C40.7962 131.449 57.0111 141.88 57.6993 142.313C58.2025 142.632 58.7784 142.792 59.3546 142.792C59.7941 142.792 60.2338 142.698 60.6462 142.51C61.5981 142.077 62.2651 141.192 62.4225 140.155C67.7877 104.902 83.924 92.2612 99.5297 80.0353ZM34.5117 20.2437C35.3513 17.5154 49.9417 12.4226 74.8387 12.4165C74.8629 12.4165 74.8873 12.4165 74.9115 12.4165C99.8085 12.4226 114.399 17.5154 115.238 20.1104C114.399 22.8416 99.7963 27.9376 74.8751 27.9376C49.9539 27.9376 35.3516 22.8416 34.5117 20.2437Z" fill="#203D7A"/>
</svg>
