<svg width="342" height="128" viewBox="0 0 342 128" fill="none" xmlns="http://www.w3.org/2000/svg">
<g clip-path="url(#clip0)">
<path d="M135.788 27.9297L123.807 29.5181L132.327 38.6515L124.339 44.0786L118.349 33.0921L112.358 44.211L104.37 38.7839L113.024 29.6505L101.042 28.0621L104.104 19.3258L115.154 24.091L113.29 11.6484H123.54L121.677 23.8263L132.593 19.0611L135.788 27.9297Z" fill="white"/>
<path d="M186.642 19.1936C183.847 24.2235 181.317 28.9888 179.054 33.357C176.791 37.7251 174.927 42.0932 173.196 46.329C171.466 50.5648 170.001 54.933 168.803 59.4335C167.605 63.8016 166.673 68.5669 165.875 73.7292H151.364C152.163 68.8316 153.228 64.1987 154.559 59.6982C155.89 55.1977 157.488 50.8295 159.218 46.5938C160.949 42.358 162.946 38.2546 165.076 34.2835C167.206 30.3125 169.469 26.3414 171.865 22.5028H142.711V11.2515H186.376V19.1936H186.642Z" fill="white"/>
<path d="M215.797 74.788C200.886 74.788 193.431 64.3309 193.431 43.5491C193.431 32.6949 195.428 24.4881 199.555 18.7963C203.549 13.1044 209.406 10.3247 217.128 10.3247C231.772 10.3247 238.96 20.9142 238.96 42.0931C238.96 52.6825 236.963 60.757 232.97 66.4488C228.843 72.0083 223.252 74.788 215.797 74.788ZM216.329 20.7818C210.338 20.7818 207.41 28.1944 207.41 43.152C207.41 57.183 210.338 64.3309 216.196 64.3309C221.92 64.3309 224.716 57.0507 224.716 42.6225C224.716 28.062 221.92 20.7818 216.329 20.7818Z" fill="white"/>
<path d="M267.316 74.788C252.406 74.788 244.951 64.3309 244.951 43.5491C244.951 32.6949 246.948 24.4881 251.075 18.7963C255.069 13.1044 260.926 10.3247 268.648 10.3247C283.291 10.3247 290.48 20.9142 290.48 42.0931C290.48 52.6825 288.483 60.757 284.49 66.4488C280.496 72.0083 274.771 74.788 267.316 74.788ZM267.982 20.7818C261.991 20.7818 259.063 28.1944 259.063 43.152C259.063 57.183 261.991 64.3309 267.849 64.3309C273.573 64.3309 276.369 57.0507 276.369 42.6225C276.369 28.062 273.573 20.7818 267.982 20.7818Z" fill="white"/>
<path d="M318.836 74.788C303.926 74.788 296.471 64.3309 296.471 43.5491C296.471 32.6949 298.468 24.4881 302.594 18.7963C306.588 13.1044 312.446 10.3247 320.167 10.3247C334.811 10.3247 342 20.9142 342 42.0931C342 52.6825 340.003 60.757 336.009 66.4488C332.015 72.0083 326.291 74.788 318.836 74.788ZM319.501 20.7818C313.511 20.7818 310.582 28.1944 310.582 43.152C310.582 57.183 313.511 64.3309 319.368 64.3309C325.093 64.3309 327.888 57.0507 327.888 42.6225C327.888 28.062 325.093 20.7818 319.501 20.7818Z" fill="white"/>
<path d="M3.59475 59.1684C-4.12654 36.004 8.25415 10.9864 31.1518 3.44144C53.9163 -3.97118 78.8108 8.60379 86.5321 31.7682C94.2534 54.9326 81.8727 79.8179 58.9751 87.4952C45.7956 91.8634 31.1518 89.4807 19.703 81.2739M19.9692 81.4063C13.8454 76.641 12.9136 72.67 14.9104 68.6989L19.9692 81.4063Z" stroke="white" stroke-width="2" stroke-miterlimit="10"/>
<path fill-rule="evenodd" clip-rule="evenodd" d="M18.3713 71.611C25.0275 69.3607 29.1544 64.066 30.6188 56.1239C27.2907 53.7413 26.7582 50.1674 29.0213 45.9316C35.6776 30.4445 41.8014 23.6937 47.2595 25.8116C51.2533 22.5024 53.1171 16.6782 52.7177 8.33902C45.3958 6.88297 40.0708 7.94191 37.142 11.6482C23.5632 25.6792 15.0431 40.7692 11.0493 56.7858C9.85121 61.551 10.1175 65.3897 11.9812 68.1694C13.5787 70.0226 15.7087 71.2139 18.3713 71.611Z" fill="white" stroke="white" stroke-width="0.2289" stroke-miterlimit="10"/>
<path fill-rule="evenodd" clip-rule="evenodd" d="M61.6372 11.1189C60.1729 10.3247 58.3091 9.66282 55.7797 9.00098C56.8447 15.3546 54.5816 22.7673 49.7891 26.3412C53.6497 27.1354 57.6435 27.1354 59.1079 25.547C62.3029 21.9731 62.9685 17.8696 62.8354 14.5604C62.9685 13.7662 62.436 11.7807 61.6372 11.1189Z" fill="white" stroke="white" stroke-width="0.2289" stroke-miterlimit="10"/>
<path fill-rule="evenodd" clip-rule="evenodd" d="M37.0091 61.4192C35.9441 60.2278 34.2134 59.0365 32.0834 57.8452C31.2847 64.3313 27.0246 70.6849 21.4333 72.8028C24.8946 74.656 28.7553 75.8473 30.619 74.656C34.6128 72.141 36.4766 68.4347 37.2753 65.1255C37.6747 64.3313 37.6747 62.3457 37.0091 61.4192Z" fill="white" stroke="white" stroke-width="0.2289" stroke-miterlimit="10"/>
<path d="M29.4208 106.424L25.0277 121.25H21.4333L18.7708 111.19C18.6376 110.792 18.6376 110.395 18.5045 109.866C18.5045 110.131 18.3714 110.66 18.2383 111.19L15.3095 121.25H11.8482L7.45508 106.424H10.9163L13.5789 117.146C13.712 117.411 13.712 117.94 13.712 118.47H13.8451C13.8451 118.073 13.9782 117.676 14.1114 117.146L17.1733 106.557H20.3683L23.0308 117.278C23.1639 117.676 23.1639 118.073 23.1639 118.602H23.297C23.297 118.205 23.4302 117.808 23.5633 117.278L26.2258 106.557H29.4208V106.424Z" fill="white"/>
<path d="M51.9191 106.424L47.526 121.25H43.9316L41.2691 111.19C41.1359 110.792 41.1359 110.395 41.0028 109.866C41.0028 110.131 40.8697 110.66 40.7366 111.19L37.8078 121.25H34.3465L29.9534 106.424H33.4146L36.0772 117.146C36.2103 117.411 36.2103 117.94 36.2103 118.47H36.3434C36.3434 118.073 36.4765 117.676 36.6097 117.146L39.6715 106.557H42.8666L45.5291 117.278C45.6622 117.676 45.6622 118.073 45.6622 118.602H45.7953C45.7953 118.205 45.9285 117.808 46.0616 117.278L48.7241 106.557H51.9191V106.424Z" fill="white"/>
<path d="M74.5505 106.424L70.1573 121.25H66.5629L63.9004 111.19C63.7673 110.792 63.7673 110.395 63.6342 109.866C63.6342 110.131 63.501 110.66 63.3679 111.19L60.4391 121.25H56.9779L52.5847 106.424H56.046L58.7085 117.146C58.8416 117.411 58.8416 117.94 58.8416 118.47H58.9748C58.9748 118.073 59.1079 117.676 59.241 117.146L62.3029 106.557H65.4979L68.1604 117.278C68.2936 117.676 68.2936 118.073 68.2936 118.602H68.4267C68.4267 118.205 68.5598 117.808 68.6929 117.278L71.3555 106.557H74.5505V106.424Z" fill="white"/>
<path d="M77.08 121.514C76.5475 121.514 76.015 121.382 75.6156 120.985C75.2162 120.588 74.95 120.191 74.95 119.661C74.95 119.132 75.2162 118.602 75.6156 118.338C76.015 117.94 76.5475 117.808 77.08 117.808C77.6125 117.808 78.145 117.94 78.5443 118.338C78.9437 118.735 79.21 119.132 79.21 119.661C79.21 120.191 78.9437 120.588 78.5443 120.985C78.145 121.25 77.6125 121.514 77.08 121.514Z" fill="white"/>
<path d="M86.2656 118.999V128H82.9375V106.424H86.2656V109.072C87.4638 107.086 89.0613 106.16 91.3244 106.16C93.1882 106.16 94.6526 106.822 95.7176 108.145C96.7826 109.469 97.3151 111.19 97.3151 113.44C97.3151 115.955 96.7826 117.94 95.5844 119.396C94.3863 120.853 92.7888 121.647 90.6588 121.647C88.795 121.514 87.3307 120.588 86.2656 118.999ZM86.1325 113.175V115.028C86.1325 116.087 86.5319 117.014 87.1975 117.808C87.8632 118.602 88.795 118.999 89.86 118.999C91.0582 118.999 92.1232 118.47 92.7888 117.543C93.4544 116.617 93.8538 115.161 93.8538 113.44C93.8538 111.984 93.5876 110.793 92.9219 109.998C92.2563 109.204 91.3244 108.807 90.2594 108.807C89.0613 108.807 88.1294 109.204 87.3306 110.131C86.5319 110.793 86.1325 111.852 86.1325 113.175Z" fill="white"/>
<path d="M111.826 121.117H108.498V118.867C107.433 120.588 105.968 121.514 103.971 121.514C102.507 121.514 101.309 121.117 100.51 120.323C99.7114 119.529 99.312 118.47 99.312 117.146C99.312 114.367 100.91 112.778 104.238 112.249L108.631 111.587C108.631 109.469 107.566 108.41 105.569 108.41C103.838 108.41 102.241 109.072 100.776 110.263V107.351C102.374 106.424 104.105 106.027 106.235 106.027C109.962 106.027 111.826 107.881 111.826 111.587V121.117ZM108.631 113.837L105.436 114.234C104.504 114.367 103.705 114.631 103.306 114.896C102.773 115.293 102.507 115.823 102.507 116.749C102.507 117.411 102.773 117.94 103.173 118.338C103.572 118.735 104.238 118.999 105.036 118.999C106.101 118.999 106.9 118.602 107.566 117.94C108.231 117.279 108.631 116.352 108.631 115.293V113.837Z" fill="white"/>
<path d="M115.021 120.72V117.543C116.219 118.47 117.683 118.999 119.148 118.999C121.145 118.999 122.21 118.337 122.21 117.146C122.21 116.749 122.076 116.484 121.943 116.219C121.81 115.955 121.544 115.822 121.278 115.557C121.011 115.425 120.612 115.16 120.213 115.028C119.813 114.896 119.414 114.763 118.881 114.498C118.216 114.234 117.683 113.969 117.284 113.704C116.751 113.44 116.352 113.175 116.086 112.778C115.819 112.381 115.553 111.983 115.287 111.586C115.154 111.189 115.021 110.66 115.021 110.13C115.021 109.468 115.154 108.807 115.553 108.277C115.953 107.748 116.352 107.218 116.885 106.953C117.417 106.556 118.083 106.292 118.881 106.159C119.547 106.027 120.346 105.895 121.145 105.895C122.476 105.895 123.807 106.159 124.872 106.556V109.468C123.807 108.807 122.609 108.542 121.278 108.542C120.878 108.542 120.479 108.542 120.08 108.674C119.68 108.807 119.414 108.939 119.148 109.071C118.881 109.204 118.748 109.468 118.615 109.601C118.482 109.733 118.482 109.998 118.482 110.263C118.482 110.527 118.615 110.792 118.748 111.057C118.881 111.322 119.148 111.454 119.414 111.586C119.68 111.719 119.946 111.851 120.346 112.116C120.745 112.381 121.145 112.381 121.677 112.513C122.343 112.778 122.875 113.042 123.408 113.307C123.94 113.572 124.34 113.837 124.739 114.234C125.138 114.631 125.405 115.028 125.538 115.425C125.671 115.822 125.804 116.352 125.804 117.013C125.804 117.808 125.671 118.47 125.271 118.999C124.872 119.528 124.473 120.058 123.94 120.323C123.408 120.72 122.742 120.984 121.943 121.117C121.145 121.249 120.346 121.382 119.547 121.382C117.683 121.514 116.219 121.249 115.021 120.72Z" fill="white"/>
<path d="M142.045 121.117H138.717V113.043C138.717 110.131 137.785 108.675 135.788 108.675C134.856 108.675 133.924 109.072 133.259 109.998C132.593 110.792 132.194 111.984 132.194 113.307V121.249H128.866V99.2764H132.194V108.807C133.259 106.954 134.989 106.027 136.986 106.027C140.315 106.027 141.912 108.013 141.912 112.116V121.117H142.045Z" fill="white"/>
<path d="M157.621 121.117H154.293V118.867C153.228 120.588 151.763 121.514 149.767 121.514C148.302 121.514 147.104 121.117 146.305 120.323C145.507 119.529 145.107 118.47 145.107 117.146C145.107 114.367 146.705 112.778 150.033 112.249L154.426 111.587C154.426 109.469 153.361 108.41 151.364 108.41C149.633 108.41 148.036 109.072 146.572 110.263V107.351C148.169 106.424 149.9 106.027 152.03 106.027C155.757 106.027 157.621 107.881 157.621 111.587V121.117ZM154.293 113.837L151.098 114.234C150.166 114.367 149.367 114.631 148.968 114.896C148.435 115.293 148.169 115.823 148.169 116.749C148.169 117.411 148.435 117.94 148.835 118.338C149.234 118.735 149.9 118.999 150.698 118.999C151.763 118.999 152.562 118.602 153.228 117.94C153.893 117.279 154.293 116.352 154.293 115.293V113.837Z" fill="white"/>
<path d="M169.602 114.366H161.615V111.851H169.602V114.366Z" fill="white"/>
<path d="M175.46 103.247C174.927 103.247 174.395 103.115 173.995 102.718C173.596 102.321 173.463 101.924 173.463 101.394C173.463 100.865 173.596 100.335 173.995 100.07C174.395 99.6734 174.927 99.541 175.46 99.541C175.992 99.541 176.525 99.6734 176.924 100.07C177.324 100.468 177.457 100.865 177.457 101.394C177.457 101.924 177.324 102.321 176.924 102.718C176.525 103.115 175.992 103.247 175.46 103.247ZM177.057 121.117H173.729V106.424H177.057V121.117Z" fill="white"/>
<path d="M194.763 121.117H191.435V112.778C191.435 109.998 190.503 108.675 188.506 108.675C187.441 108.675 186.642 109.072 185.977 109.866C185.311 110.66 184.912 111.587 184.912 112.778V121.25H181.583V106.424H184.912V108.939C185.977 107.086 187.574 106.16 189.704 106.16C191.302 106.16 192.5 106.689 193.432 107.748C194.23 108.807 194.763 110.263 194.763 112.249V121.117Z" fill="white"/>
<path d="M197.958 120.72V117.543C199.156 118.47 200.621 118.999 202.085 118.999C204.082 118.999 205.147 118.337 205.147 117.146C205.147 116.749 205.014 116.484 204.881 116.219C204.747 115.955 204.481 115.822 204.215 115.557C203.949 115.425 203.549 115.16 203.15 115.028C202.751 114.896 202.351 114.763 201.819 114.498C201.153 114.234 200.621 113.969 200.221 113.704C199.689 113.44 199.289 113.175 199.023 112.778C198.757 112.381 198.491 111.983 198.224 111.586C198.091 111.189 197.958 110.66 197.958 110.13C197.958 109.468 198.091 108.807 198.491 108.277C198.89 107.748 199.289 107.218 199.822 106.953C200.354 106.689 201.02 106.292 201.819 106.159C202.484 106.027 203.283 105.895 204.082 105.895C205.413 105.895 206.744 106.159 207.809 106.556V109.468C206.744 108.807 205.546 108.41 204.215 108.41C203.816 108.41 203.416 108.41 203.017 108.542C202.617 108.674 202.351 108.807 202.085 108.939C201.819 109.071 201.686 109.336 201.552 109.468C201.419 109.733 201.286 109.866 201.286 110.13C201.286 110.395 201.419 110.66 201.552 110.925C201.686 111.189 201.952 111.322 202.218 111.454C202.484 111.586 202.751 111.719 203.15 111.983C203.549 112.116 203.949 112.248 204.481 112.381C205.147 112.645 205.679 112.91 206.212 113.175C206.744 113.44 207.144 113.704 207.543 114.101C207.942 114.498 208.209 114.896 208.342 115.293C208.475 115.69 208.608 116.219 208.608 116.881C208.608 117.675 208.475 118.337 208.076 118.867C207.676 119.396 207.277 119.926 206.744 120.19C206.212 120.587 205.546 120.852 204.747 120.985C203.949 121.117 203.15 121.249 202.351 121.249C200.621 121.514 199.156 121.249 197.958 120.72Z" fill="white"/>
<path d="M224.716 121.117H221.388V118.735C220.456 120.588 218.859 121.382 216.862 121.382C213.401 121.382 211.537 119.264 211.537 115.028V106.16H214.865V114.631C214.865 117.279 215.93 118.602 217.927 118.602C218.992 118.602 219.791 118.205 220.456 117.543C221.122 116.749 221.388 115.823 221.388 114.631V106.16H224.716V121.117Z" fill="white"/>
<path d="M237.763 109.601C237.363 109.337 236.831 109.072 236.032 109.072C234.967 109.072 234.168 109.469 233.503 110.395C232.837 111.322 232.438 112.513 232.438 114.102V121.25H229.11V106.424H232.438V109.469C232.704 108.41 233.237 107.616 233.902 107.086C234.568 106.557 235.367 106.16 236.165 106.16C236.831 106.16 237.23 106.292 237.497 106.424V109.601H237.763Z" fill="white"/>
<path d="M251.608 121.117H248.28V118.867C247.215 120.588 245.75 121.514 243.753 121.514C242.289 121.514 241.091 121.117 240.292 120.323C239.493 119.529 239.094 118.47 239.094 117.146C239.094 114.367 240.691 112.778 244.02 112.249L248.413 111.587C248.413 109.469 247.348 108.41 245.351 108.41C243.62 108.41 242.023 109.072 240.558 110.263V107.351C242.156 106.424 243.887 106.027 246.017 106.027C249.744 106.027 251.608 107.881 251.608 111.587V121.117ZM248.28 113.837L245.085 114.234C244.153 114.367 243.354 114.631 242.955 114.896C242.422 115.293 242.156 115.823 242.156 116.749C242.156 117.411 242.422 117.94 242.821 118.338C243.221 118.735 243.887 118.999 244.685 118.999C245.75 118.999 246.549 118.602 247.215 117.94C247.88 117.279 248.28 116.352 248.28 115.293V113.837Z" fill="white"/>
<path d="M268.914 121.117H265.586V112.778C265.586 109.998 264.654 108.675 262.657 108.675C261.592 108.675 260.793 109.072 260.128 109.866C259.462 110.66 259.063 111.587 259.063 112.778V121.25H255.735V106.424H259.063V108.939C260.128 107.086 261.725 106.16 263.855 106.16C265.453 106.16 266.651 106.689 267.583 107.748C268.382 108.807 268.914 110.263 268.914 112.249V121.117Z" fill="white"/>
<path d="M283.824 120.455C282.626 121.117 281.162 121.514 279.564 121.514C277.301 121.514 275.57 120.853 274.239 119.397C272.908 118.073 272.242 116.22 272.242 114.102C272.242 111.719 272.908 109.734 274.372 108.278C275.837 106.822 277.833 106.027 280.23 106.027C281.561 106.027 282.759 106.292 283.824 106.689V109.866C282.759 109.072 281.694 108.675 280.496 108.675C279.032 108.675 277.967 109.204 277.035 110.131C276.103 111.057 275.703 112.381 275.703 113.837C275.703 115.425 276.103 116.617 277.035 117.411C277.833 118.338 279.032 118.735 280.496 118.735C281.694 118.735 282.892 118.338 283.957 117.411V120.455H283.824Z" fill="white"/>
<path d="M299.666 114.631H289.548C289.548 115.955 289.948 117.013 290.88 117.808C291.678 118.602 292.743 118.867 294.208 118.867C295.805 118.867 297.27 118.337 298.601 117.411V120.058C297.27 120.852 295.406 121.382 293.276 121.382C291.146 121.382 289.415 120.72 288.084 119.396C286.753 118.072 286.22 116.219 286.22 113.704C286.22 111.454 286.886 109.468 288.217 108.012C289.548 106.556 291.279 105.895 293.276 105.895C295.273 105.895 296.87 106.556 298.068 107.88C299.133 109.204 299.799 110.925 299.799 113.307V114.631H299.666ZM296.471 112.248C296.471 111.057 296.205 110.13 295.672 109.468C295.14 108.807 294.341 108.41 293.409 108.41C292.477 108.41 291.678 108.807 290.88 109.468C290.214 110.13 289.815 111.057 289.681 112.248H296.471Z" fill="white"/>
<path d="M304.326 121.514C303.793 121.514 303.261 121.382 302.861 120.985C302.462 120.588 302.196 120.191 302.196 119.661C302.196 119.132 302.462 118.602 302.861 118.338C303.261 117.94 303.793 117.808 304.326 117.808C304.858 117.808 305.391 117.94 305.79 118.338C306.189 118.735 306.456 119.132 306.456 119.661C306.456 120.191 306.189 120.588 305.79 120.985C305.391 121.382 304.991 121.514 304.326 121.514Z" fill="white"/>
<path d="M321.632 121.117H318.304V118.867C317.239 120.588 315.774 121.514 313.777 121.514C312.313 121.514 311.115 121.117 310.316 120.323C309.517 119.529 309.118 118.47 309.118 117.146C309.118 114.367 310.715 112.778 314.044 112.249L318.437 111.587C318.437 109.469 317.372 108.41 315.375 108.41C313.644 108.41 312.047 109.072 310.582 110.263V107.351C312.18 106.424 313.91 106.027 316.04 106.027C319.768 106.027 321.632 107.881 321.632 111.587V121.117ZM318.304 113.837L315.109 114.234C314.177 114.367 313.378 114.631 312.979 114.896C312.446 115.293 312.18 115.823 312.18 116.749C312.18 117.411 312.446 117.94 312.845 118.338C313.245 118.735 313.91 118.999 314.709 118.999C315.774 118.999 316.573 118.602 317.239 117.94C317.904 117.279 318.304 116.352 318.304 115.293V113.837Z" fill="white"/>
<path d="M336.675 107.748L328.688 118.602H336.675V121.25H323.895V119.926L332.149 108.939H324.694V106.292H336.675V107.748Z" fill="white"/>
</g>
<defs>
<clipPath id="clip0">
<rect width="342" height="128" fill="white"/>
</clipPath>
</defs>
</svg>
