<svg width="685" height="166" viewBox="0 0 685 166" fill="none" xmlns="http://www.w3.org/2000/svg">
<path d="M160.087 154.456H155.376L149.617 144.793C149.156 143.986 148.631 143.218 148.047 142.494C147.609 141.91 147.099 141.384 146.529 140.927C146.023 140.541 145.457 140.241 144.853 140.039C144.186 139.869 143.5 139.781 142.812 139.778H139.461V154.456H135.43V119.981H145.9C147.318 119.952 148.731 120.146 150.088 120.556C151.296 120.896 152.419 121.483 153.386 122.28C154.343 123.057 155.113 124.039 155.638 125.153C156.521 127.511 156.521 130.107 155.638 132.465C155.299 133.439 154.785 134.342 154.119 135.129C153.428 135.929 152.616 136.617 151.711 137.166C150.704 137.718 149.631 138.139 148.518 138.42C149.572 138.878 150.504 139.576 151.24 140.457C151.653 140.94 152.038 141.445 152.392 141.972L153.648 143.957L160.087 154.456ZM139.147 123.638V136.122H144.382C145.345 136.136 146.303 135.977 147.209 135.652C148.027 135.367 148.778 134.919 149.417 134.335C150.056 133.752 150.57 133.044 150.926 132.256C151.27 131.374 151.448 130.435 151.45 129.488C151.486 128.675 151.34 127.864 151.023 127.114C150.706 126.364 150.226 125.694 149.617 125.153C148.11 124.04 146.253 123.503 144.382 123.638H139.147ZM182.912 154.456H178.933V150.591C178.225 151.976 177.134 153.131 175.788 153.918C174.443 154.705 172.901 155.091 171.343 155.03C169.312 155.001 167.36 154.24 165.846 152.889C165.148 152.214 164.601 151.4 164.241 150.5C163.88 149.6 163.713 148.634 163.752 147.665C163.752 143.069 166.474 140.353 171.918 139.621L179.3 138.577C179.3 134.398 177.625 132.309 174.065 132.309C171.096 132.297 168.226 133.375 166.003 135.338V131.316C168.521 129.727 171.452 128.91 174.431 128.966C180.19 128.966 183.121 132.047 183.121 138.159L182.912 154.456ZM178.933 141.972L173.018 142.808C171.541 142.959 170.113 143.422 168.83 144.166C168.339 144.587 167.959 145.121 167.721 145.721C167.484 146.322 167.397 146.971 167.469 147.613C167.447 148.163 167.549 148.711 167.766 149.217C167.984 149.723 168.311 150.174 168.725 150.538C169.702 151.322 170.928 151.729 172.18 151.687C173.089 151.707 173.993 151.536 174.831 151.185C175.67 150.834 176.425 150.311 177.049 149.65C178.326 148.215 179.001 146.345 178.933 144.427V141.972ZM211.652 154.456H207.726V140.248C207.726 135.025 205.789 132.57 201.967 132.57C201.04 132.562 200.122 132.76 199.281 133.148C198.439 133.537 197.694 134.106 197.099 134.816C195.754 136.401 195.062 138.435 195.162 140.509V154.456H191.183V117.892H195.162V133.823C195.937 132.372 197.102 131.163 198.525 130.333C199.949 129.503 201.575 129.084 203.224 129.122C208.773 129.122 211.547 132.465 211.547 139.151L211.652 154.456ZM237.827 154.456H233.901V150.591C233.25 151.699 232.368 152.655 231.316 153.394C230.263 154.134 229.063 154.639 227.798 154.877C226.533 155.114 225.232 155.079 223.982 154.772C222.731 154.465 221.562 153.894 220.552 153.098C219.843 152.431 219.289 151.619 218.927 150.717C218.566 149.814 218.405 148.845 218.458 147.874C218.458 143.278 221.18 140.562 226.572 139.83L234.006 138.786C234.006 134.607 232.278 132.518 228.771 132.518C225.818 132.509 222.966 133.588 220.761 135.547V131.525C223.258 129.932 226.173 129.113 229.137 129.175C234.948 129.175 237.827 132.256 237.827 138.368V154.456ZM233.901 141.972L227.933 142.808C226.471 142.953 225.06 143.417 223.797 144.166C223.29 144.575 222.894 145.106 222.647 145.708C222.4 146.311 222.309 146.966 222.384 147.613C222.361 148.168 222.468 148.721 222.695 149.229C222.922 149.736 223.263 150.184 223.693 150.538C224.636 151.345 225.855 151.757 227.095 151.687C228.006 151.717 228.912 151.551 229.752 151.199C230.593 150.848 231.347 150.319 231.964 149.65C233.26 148.223 233.954 146.352 233.901 144.427V141.972ZM257.511 154.195C256.376 154.762 255.114 155.031 253.846 154.978C249.501 154.978 247.355 152.575 247.355 147.77V133.197H243.114V129.801H247.355V123.794L251.281 122.541V129.801H257.511V133.197H251.281V147.039C251.17 148.289 251.483 149.54 252.171 150.591C252.514 150.976 252.946 151.272 253.429 151.454C253.913 151.636 254.433 151.698 254.946 151.635C255.863 151.658 256.763 151.383 257.511 150.852V154.195ZM267.51 154.195H263.531V117.631H267.51V154.195ZM280.021 154.195H276.043V129.801H280.021V154.195ZM309.965 152.21C309.965 161.246 305.62 165.791 296.983 165.791C294.207 165.864 291.456 165.254 288.973 164.015V160.097C291.39 161.518 294.126 162.308 296.93 162.395C303.003 162.395 306.039 159.157 306.039 152.732V150.068C305.215 151.343 304.111 152.414 302.81 153.199C301.509 153.984 300.046 154.463 298.532 154.599C297.017 154.735 295.492 154.524 294.072 153.984C292.651 153.443 291.373 152.586 290.334 151.479C288.382 148.961 287.398 145.83 287.56 142.651C287.366 139.073 288.441 135.541 290.596 132.674C291.59 131.456 292.855 130.486 294.291 129.842C295.727 129.198 297.294 128.898 298.867 128.966C300.349 128.893 301.823 129.231 303.125 129.94C304.428 130.65 305.508 131.704 306.249 132.988V129.54H310.175L309.965 152.21ZM306.039 143.069V139.412C306.076 138.453 305.918 137.496 305.577 136.599C305.235 135.702 304.716 134.882 304.05 134.189C303.391 133.47 302.578 132.909 301.672 132.548C300.765 132.186 299.789 132.033 298.815 132.1C297.719 132.052 296.628 132.269 295.634 132.733C294.641 133.197 293.774 133.894 293.109 134.764C291.69 137.057 291.116 139.772 291.486 142.442C291.386 144.797 292.087 147.116 293.475 149.024C294.09 149.818 294.885 150.455 295.795 150.882C296.706 151.309 297.705 151.513 298.71 151.479C299.701 151.484 300.681 151.277 301.584 150.871C302.487 150.466 303.292 149.871 303.945 149.128C305.335 147.519 306.081 145.454 306.039 143.33V143.069ZM306.039 118.832C306.003 119.672 305.793 120.494 305.424 121.249C305.055 122.004 304.534 122.675 303.893 123.22C302.651 124.348 301.017 124.948 299.338 124.891C298.498 124.932 297.657 124.805 296.866 124.518C296.075 124.231 295.35 123.79 294.732 123.22C294.129 122.657 293.647 121.978 293.314 121.224C292.981 120.469 292.804 119.656 292.795 118.832H295.255C295.235 119.363 295.332 119.892 295.538 120.382C295.744 120.872 296.055 121.312 296.449 121.67C296.842 122.028 297.309 122.296 297.818 122.455C298.326 122.615 298.863 122.662 299.391 122.593C300.414 122.604 301.404 122.231 302.165 121.548C302.964 120.854 303.469 119.883 303.579 118.832H306.039ZM322.686 154.195H318.708V129.801H322.686V154.195ZM351.741 154.195H347.814V140.144C347.814 134.92 345.878 132.309 342.056 132.309C341.119 132.286 340.189 132.476 339.336 132.865C338.483 133.255 337.731 133.832 337.135 134.555C335.828 136.12 335.14 138.107 335.198 140.144V154.195H331.272V129.801H335.198V133.928C335.978 132.468 337.15 131.254 338.584 130.424C340.018 129.593 341.655 129.179 343.312 129.227C344.474 129.161 345.635 129.362 346.706 129.815C347.777 130.268 348.729 130.96 349.49 131.839C351.045 134.048 351.802 136.718 351.636 139.412L351.741 154.195ZM363.938 154.195H360.012V129.801H363.938V154.195ZM390.113 130.689L375.246 151.061H389.747V154.456H369.487V153.202L384.041 133.197H370.849V129.801H389.852L390.113 130.689ZM414.351 154.195H410.425V150.329C409.774 151.438 408.893 152.394 407.84 153.133C406.787 153.872 405.588 154.378 404.323 154.616C403.057 154.853 401.756 154.817 400.506 154.51C399.256 154.204 398.086 153.633 397.076 152.837C396.367 152.17 395.813 151.357 395.451 150.455C395.09 149.553 394.93 148.583 394.982 147.613C394.982 143.017 397.704 140.3 403.096 139.569L410.53 138.524C410.53 134.346 408.802 132.256 405.295 132.256C402.342 132.248 399.49 133.326 397.285 135.286V131.264C399.782 129.67 402.698 128.852 405.661 128.913C411.472 128.913 414.351 131.995 414.351 138.107V154.195ZM410.425 141.711L404.457 142.546C402.996 142.692 401.584 143.156 400.322 143.905C399.814 144.314 399.418 144.845 399.171 145.447C398.924 146.05 398.834 146.705 398.908 147.352C398.885 147.907 398.992 148.46 399.219 148.968C399.446 149.475 399.787 149.923 400.217 150.277C401.16 151.084 402.379 151.495 403.62 151.426C404.53 151.456 405.437 151.289 406.277 150.938C407.117 150.586 407.871 150.058 408.488 149.389C409.785 147.962 410.479 146.091 410.425 144.166V141.711ZM459.477 120.817L439.218 150.695H459.006V154.351H432.831V153.202L452.881 123.533H434.454V119.877H459.111L459.477 120.817ZM463.403 141.032H480.836C480.935 138.723 480.149 136.463 478.637 134.711C477.875 133.944 476.958 133.347 475.947 132.96C474.937 132.572 473.855 132.404 472.774 132.465C469.987 132.457 467.285 133.417 465.131 135.182V131.525C467.651 129.807 470.668 128.963 473.716 129.122C475.248 129.045 476.778 129.304 478.198 129.882C479.619 130.46 480.894 131.341 481.935 132.465C484.07 135.139 485.133 138.508 484.919 141.92C485.083 145.353 483.922 148.718 481.673 151.322C480.668 152.479 479.421 153.402 478.018 154.025C476.616 154.648 475.094 154.955 473.559 154.926C472.154 155.013 470.748 154.775 469.449 154.232C468.151 153.688 466.996 152.853 466.073 151.792C464.178 149.311 463.231 146.236 463.403 143.121V141.032ZM480.784 144.375H467.487C467.421 146.249 467.993 148.09 469.109 149.598C469.667 150.233 470.362 150.733 471.142 151.059C471.923 151.385 472.767 151.528 473.612 151.479C474.501 151.503 475.386 151.339 476.207 150.997C477.029 150.655 477.768 150.142 478.375 149.494C479.629 148.101 480.399 146.343 480.574 144.479L480.784 144.375ZM527.061 154.456H523.135V140.3C523.291 138.247 522.836 136.194 521.826 134.398C521.329 133.763 520.681 133.263 519.94 132.944C519.199 132.624 518.389 132.496 517.586 132.57C516.737 132.577 515.903 132.79 515.155 133.19C514.407 133.591 513.768 134.167 513.293 134.868C512.086 136.458 511.458 138.411 511.513 140.405V154.456H507.587V139.83C507.587 134.973 505.702 132.57 501.933 132.57C501.102 132.574 500.285 132.775 499.547 133.156C498.81 133.538 498.174 134.089 497.693 134.764C496.474 136.385 495.862 138.381 495.965 140.405V154.456H492.039V129.801H495.651V133.719C496.384 132.327 497.494 131.169 498.855 130.374C500.215 129.58 501.771 129.183 503.346 129.227C504.925 129.196 506.468 129.694 507.73 130.641C508.992 131.588 509.9 132.929 510.309 134.45C511.007 132.876 512.153 131.542 513.605 130.613C515.057 129.685 516.751 129.203 518.476 129.227C523.92 129.227 526.642 132.57 526.642 139.256L527.061 154.456ZM553.236 154.456H549.257V150.591C548.549 151.976 547.458 153.131 546.113 153.918C544.767 154.705 543.225 155.091 541.667 155.03C539.572 155.133 537.515 154.443 535.908 153.098C535.211 152.423 534.664 151.609 534.303 150.709C533.942 149.809 533.775 148.843 533.814 147.874C533.814 143.278 536.536 140.562 541.981 139.83L549.362 138.786C549.362 134.607 547.687 132.518 544.127 132.518C541.158 132.506 538.289 133.584 536.065 135.547V131.525C538.584 129.936 541.514 129.119 544.493 129.175C550.252 129.175 553.184 132.256 553.184 138.368L553.236 154.456ZM549.257 141.972L543.342 142.808C541.865 142.959 540.438 143.422 539.154 144.166C538.663 144.587 538.283 145.121 538.045 145.721C537.808 146.322 537.721 146.971 537.793 147.613C537.771 148.163 537.873 148.711 538.09 149.217C538.308 149.723 538.635 150.174 539.049 150.538C540.026 151.322 541.252 151.729 542.504 151.687C543.413 151.707 544.317 151.536 545.155 151.185C545.994 150.834 546.75 150.311 547.373 149.65C548.65 148.215 549.325 146.345 549.257 144.427V141.972ZM581.976 154.456H577.997V140.405C577.997 135.182 576.113 132.57 572.291 132.57C571.354 132.547 570.424 132.737 569.571 133.127C568.719 133.516 567.966 134.093 567.37 134.816C566.042 136.369 565.35 138.365 565.434 140.405V154.456H561.455V129.801H565.434V133.928C566.204 132.472 567.368 131.26 568.792 130.43C570.217 129.599 571.846 129.182 573.495 129.227C574.625 129.227 575.74 129.475 576.762 129.953C577.785 130.432 578.689 131.129 579.411 131.995C580.966 134.204 581.723 136.875 581.557 139.569L581.976 154.456ZM588.572 141.136H605.586C605.685 138.827 604.899 136.567 603.387 134.816C602.627 134.046 601.711 133.447 600.699 133.059C599.688 132.672 598.605 132.505 597.524 132.57C594.737 132.561 592.035 133.522 589.881 135.286V131.63C592.401 129.911 595.418 129.067 598.466 129.227C599.998 129.149 601.528 129.409 602.948 129.986C604.369 130.564 605.644 131.446 606.685 132.57C608.82 135.243 609.883 138.613 609.669 142.024C609.855 145.46 608.691 148.833 606.424 151.426C605.424 152.577 604.185 153.496 602.792 154.118C601.4 154.741 599.887 155.052 598.362 155.03C596.948 155.121 595.533 154.886 594.225 154.342C592.918 153.799 591.754 152.962 590.823 151.896C588.928 149.415 587.981 146.341 588.153 143.226L588.572 141.136ZM605.952 144.479H592.656C592.59 146.353 593.162 148.194 594.278 149.703C594.844 150.342 595.548 150.844 596.337 151.17C597.127 151.495 597.98 151.637 598.833 151.583C599.714 151.604 600.59 151.437 601.402 151.095C602.214 150.753 602.944 150.243 603.544 149.598C604.761 148.157 605.478 146.361 605.586 144.479H605.952ZM628.515 154.195C627.383 154.768 626.12 155.038 624.851 154.978C620.506 154.978 618.359 152.575 618.359 147.77V133.197H614.119V129.801H618.359V123.794L622.338 122.541V129.801H628.515V133.197H622.338V147.039C622.215 148.282 622.51 149.532 623.176 150.591C623.519 150.976 623.951 151.272 624.434 151.454C624.917 151.636 625.437 151.698 625.95 151.635C626.869 151.666 627.771 151.39 628.515 150.852V154.195Z" fill="white"/>
<path fill-rule="evenodd" clip-rule="evenodd" d="M396.919 84.4626C409.483 84.4626 422.309 78.7169 422.309 65.3449C422.309 46.6451 392.731 47.5331 392.731 39.2279C392.731 35.8327 396.029 33.5344 400.793 33.5344C405.781 33.4578 410.716 34.5679 415.189 36.7729L419.43 26.0127C413.691 22.5858 407.05 20.9656 400.374 21.3638C389.538 21.3638 378.439 27.2141 378.439 38.9667C378.439 59.8604 407.441 55.7339 407.441 65.6584C407.441 69.367 404.091 72.1876 396.71 72.1876C391.16 72.1586 385.686 70.8914 380.691 68.479L376.45 79.7615C382.697 83.2294 389.775 84.9272 396.919 84.6716" fill="white"/>
<path d="M444.242 36.9814H429.951V83.6265H444.242V36.9814Z" fill="white"/>
<path fill-rule="evenodd" clip-rule="evenodd" d="M531.247 84.9855C546.062 84.9855 556.846 76.2624 556.846 59.9131C556.846 43.5638 549.151 34.6318 532.032 34.6318C528.62 34.4164 525.201 34.9382 522.009 36.1616C518.817 37.385 515.927 39.2813 513.537 41.7209C511.147 44.1605 509.312 47.086 508.158 50.2977C507.005 53.5095 506.559 56.9318 506.852 60.331C506.852 75.3744 515.385 84.9855 531.247 84.9855ZM531.98 73.2851C524.128 73.2851 521.51 68.0616 521.51 59.9653C521.51 51.8691 523.709 46.28 531.614 46.28C539.519 46.28 541.665 52.1825 541.665 59.9131C541.665 67.6438 539.728 73.2851 531.823 73.2851" fill="white"/>
<path fill-rule="evenodd" clip-rule="evenodd" d="M563.076 83.6269H577.158V52.2864C579.942 49.7725 583.56 48.3768 587.314 48.3688C589.384 48.2971 591.456 48.4548 593.492 48.839L595.324 37.3474C593.287 36.7433 591.165 36.4786 589.042 36.564C586.664 36.7972 584.366 37.5499 582.313 38.7685C580.259 39.9872 578.499 41.6421 577.158 43.6156V37.9743H563.076V83.6269Z" fill="white"/>
<path fill-rule="evenodd" clip-rule="evenodd" d="M622.547 84.4108C627.146 84.3068 631.709 83.5686 636.105 82.217L634.692 70.7777C631.262 71.6086 627.751 72.064 624.222 72.1358C620.296 72.1358 618.987 71.0389 618.987 67.5392V46.2277H633.802V35.4675H618.987V25.6997H604.538V35.4675H597.523V46.2277H604.538V68.375C604.538 80.441 611.03 84.4108 622.547 84.4108Z" fill="white"/>
<path fill-rule="evenodd" clip-rule="evenodd" d="M655.16 84.0451C660.02 83.7544 664.66 81.9246 668.405 78.8217C669.661 82.7915 675.577 83.6795 681.126 83.6795H684.424L684.948 73.2327C682.33 73.2327 680.812 72.8148 680.812 71.3V50.5631C680.812 40.1163 675.053 36.1465 660.814 36.1465C654.407 36.2074 648.068 37.4653 642.125 39.8551L644.9 50.3019C649.38 49.0229 654.009 48.3379 658.668 48.2648C664.426 48.2648 667.044 49.4139 667.044 53.4882V56.361H659.034C649.873 56.361 639.246 58.7116 639.246 70.3598C639.246 79.5007 645.004 84.2541 654.951 84.2541L655.16 84.0451ZM657.883 73.3894C655.37 73.3894 652.648 72.188 652.648 69.4718C652.648 66.7556 655.684 64.7708 659.82 64.6663H666.73V71.9268C663.845 72.9168 660.827 73.4628 657.778 73.5461" fill="white"/>
<path fill-rule="evenodd" clip-rule="evenodd" d="M502.141 47.8991H494.603C494.603 48.8915 495.126 52.1823 495.126 53.1225C495.126 63.2559 485.127 68.7927 474.186 68.7927C471.24 68.785 468.299 68.5404 465.391 68.0614V72.6058H478.008C491.619 72.6058 498.686 76.7845 498.686 87.1791C498.686 97.5737 490.415 105.879 473.61 105.879C456.806 105.879 450.838 102.275 450.838 93.2383C451.116 91.2762 451.866 89.4104 453.024 87.8004C454.182 86.1904 455.713 84.884 457.487 83.9928C456.364 83.2562 455.447 82.2461 454.825 81.058C454.202 79.8698 453.893 78.5428 453.927 77.2024C454.529 73.1202 456.354 69.315 459.162 66.2854C457.143 64.8561 455.502 62.959 454.381 60.7571C453.259 58.5553 452.69 56.1145 452.723 53.6448C452.723 43.8248 460.994 36.0419 473.663 36.0419C477.963 35.9344 482.235 36.7725 486.174 38.4969L501.879 37.3478L502.141 47.8991ZM487.326 89.6863C487.326 86.2389 483.976 85.1942 479.997 85.1942H464.816C464.14 86.7054 463.8 88.345 463.821 89.9997C463.821 93.2382 467.904 95.5888 476.228 95.5888C482.405 95.5888 487.326 92.9771 487.326 89.6863ZM481.725 53.1225C481.676 51.0445 480.802 49.0708 479.295 47.6358C477.788 46.2007 475.772 45.4217 473.689 45.4702C471.606 45.5186 469.628 46.3906 468.19 47.8943C466.752 49.3979 465.971 51.4101 466.02 53.4881C465.989 54.5001 466.178 55.5067 466.575 56.4386C466.972 57.3704 467.566 58.2052 468.318 58.8855C469.069 59.5658 469.96 60.0754 470.928 60.379C471.896 60.6826 472.918 60.7731 473.924 60.6442C474.934 60.6794 475.94 60.5106 476.882 60.1477C477.824 59.7849 478.683 59.2355 479.407 58.5328C480.131 57.8301 480.705 56.9885 481.094 56.0587C481.483 55.1289 481.68 54.1301 481.672 53.1225" fill="white"/>
<path fill-rule="evenodd" clip-rule="evenodd" d="M474.029 31.08C476.969 31.0843 479.866 30.3787 482.473 29.0234C485.08 27.6682 487.32 25.7035 489.001 23.2971L482.876 18.0737C480.684 20.5358 477.631 22.0682 474.343 22.3569C470.944 22.0334 467.772 20.5154 465.391 18.0737L458.952 23.2971C460.605 25.7521 462.855 27.7488 465.492 29.1007C468.129 30.4526 471.066 31.1156 474.029 31.0278" fill="white"/>
<path d="M15.3916 33.8468V15.356H45.4405V45.3383H38.6874L22.0924 28.7801L21.2548 27.9966L15.3916 33.8468Z" fill="white"/>
<path d="M0 52.4434L21.2541 31.1841L42.5082 52.4434L37.7444 57.1967H13.0875V65.5019L0 52.4434Z" fill="white"/>
<path d="M15.3916 89.5288L33.8712 89.4765L28.8456 84.462L28.0603 83.6785L45.4405 66.2846V59.4941H15.3916V89.5288Z" fill="white"/>
<path d="M52.5595 104.834L31.3054 83.6787L52.5595 62.4194L57.3757 67.225L57.3234 91.775H65.647L52.5595 104.834Z" fill="white"/>
<path d="M89.6751 89.4765H59.6262V59.4941H66.4317L83.0267 76.0523L83.8119 76.8881L84.6495 76.0523L89.6751 71.0379V89.4765Z" fill="white"/>
<path d="M105.118 52.4438L83.8115 73.6508L62.5574 52.4438L67.3736 47.6382H92.0304V39.3853L105.118 52.4438Z" fill="white"/>
<path d="M89.6751 15.356V45.3383H59.6262V38.6001L76.2212 21.9897L77.0588 21.2062L76.2212 20.4227L71.1956 15.356H89.6751Z" fill="white"/>
<path d="M73.8133 21.207L52.5592 42.4141L47.743 37.6086V13.0585H39.4717L52.5592 0L73.8133 21.207Z" fill="white"/>
<path d="M335.301 21.7817H314.676L293.736 83.6269H309.441L315.408 65.5017H335.144L341.112 83.6269H356.817L335.301 21.7817ZM318.654 54.7414L324.988 30.975L331.27 54.7414H318.654Z" fill="white"/>
<path d="M261.436 37.9752C261.436 35.3635 263.373 33.013 269.655 33.013C274.662 33.0565 279.629 33.903 284.366 35.5202L288.711 25.0734C282.63 22.1434 275.934 20.7105 269.184 20.8947C258.138 20.8947 246.778 26.1181 246.778 37.8707C246.778 58.7644 276.461 56.0482 276.461 66.0249C276.461 69.7858 273.006 72.0318 265.467 72.0318C259.849 72.1564 254.257 71.2353 248.977 69.3157L244.737 79.7625C250.312 82.6002 256.486 84.0686 262.745 84.0457C263.238 85.5514 263.537 87.1135 263.635 88.6945C263.635 91.7763 259.133 93.5 256.934 94.8059L262.169 103.477C267.509 101.335 275.78 97.5221 275.78 90.4705C275.62 88.0068 274.942 85.6042 273.791 83.4189C283.476 81.5384 291.538 76.1061 291.538 65.5026C291.538 45.9148 261.332 45.9148 261.332 37.7663" fill="white"/>
<path d="M159.876 21.52H135.376V83.5219H150.61V65.9713H155.374C174.168 65.9713 184.324 55.5244 184.324 43.5106C184.324 29.6685 174.168 21.52 160.033 21.52H159.876ZM155.374 54.2708H150.139V33.3772H157.363C158.785 33.177 160.234 33.3092 161.596 33.7633C162.958 34.2175 164.195 34.9813 165.21 35.9944C166.226 37.0074 166.991 38.242 167.446 39.6008C167.902 40.9596 168.034 42.4054 167.833 43.824C167.833 49.5175 164.483 54.2708 155.165 54.2708" fill="white"/>
<path d="M200.815 21.7817L179.875 83.6269H195.58L201.495 65.5017H221.231L227.199 83.6269H242.904L221.964 21.7817H200.815ZM204.793 54.7414L211.128 30.975L217.41 54.7414H204.793Z" fill="white"/>
</svg>
