<svg width="150" height="150" viewBox="0 0 150 150" fill="none" xmlns="http://www.w3.org/2000/svg">
<path d="M70.5697 96.0937C69.697 96.0937 68.8295 96.0512 67.9688 95.9724V96.0937C67.9688 97.9585 68.7095 99.7469 70.0282 101.066C71.3468 102.384 73.1352 103.125 75 103.125C76.8648 103.125 78.6532 102.384 79.9718 101.066C81.2905 99.7469 82.0312 97.9585 82.0312 96.0937V95.9724C81.1705 96.0512 80.3027 96.0937 79.4303 96.0937H70.5697Z" fill="#203D7A"/>
<path d="M107.812 32.8125H42.1875V37.5H107.812V32.8125Z" fill="#203D7A"/>
<path d="M97.4206 83.1316C100.518 79.5136 102.454 75.0465 102.976 70.3125H47.0244C47.6616 76.1113 50.4169 81.4708 54.762 85.3635C59.107 89.2561 64.736 91.4079 70.5697 91.4063H79.4303C82.8487 91.4081 86.2269 90.6694 89.3325 89.241C92.4381 87.8126 95.1974 85.7283 97.4206 83.1316Z" fill="#203D7A"/>
<path d="M107.812 60.9375C109.056 60.9375 110.248 60.4436 111.127 59.5646C112.006 58.6855 112.5 57.4932 112.5 56.25C112.5 55.0068 112.006 53.8145 111.127 52.9354C110.248 52.0564 109.056 51.5625 107.812 51.5625V60.9375Z" fill="#203D7A"/>
<path d="M63.5851 9.47559C58.7736 9.95022 54.2704 12.0607 50.827 15.4547C47.3837 18.8487 45.2085 23.3209 44.6646 28.1251H54.0021C54.6173 20.4558 58.2249 13.7327 63.5851 9.47559Z" fill="#203D7A"/>
<path d="M86.5014 16.1663C84.1638 13.2064 80.9634 11.047 77.3438 9.9873V28.125H91.2891C90.8955 23.7567 89.2311 19.5993 86.5014 16.1663Z" fill="#203D7A"/>
<path d="M58.7109 28.125H72.6563V9.9873C69.0366 11.047 65.8362 13.2064 63.4986 16.1663C60.7689 19.5993 59.1045 23.7567 58.7109 28.125Z" fill="#203D7A"/>
<path d="M95.998 28.1251H105.335C104.791 23.3209 102.616 18.8487 99.173 15.4547C95.7296 12.0607 91.2264 9.95022 86.4149 9.47559C91.7751 13.7327 95.3827 20.4558 95.998 28.1251Z" fill="#203D7A"/>
<path d="M56.7208 53.775C57.053 54.4697 57.543 55.0771 58.1518 55.5487C58.7605 56.0204 59.471 56.3432 60.2267 56.4914C60.9823 56.6396 61.7621 56.6091 62.5039 56.4023C63.2457 56.1955 63.9288 55.8182 64.4988 55.3005L56.2957 52.4048C56.3702 52.8797 56.5134 53.3413 56.7208 53.775Z" fill="black"/>
<path d="M77.3438 126.562V124.219H71.7688C71.4583 124.22 71.1606 124.343 70.9403 124.562L67.2823 128.22C67.0647 128.437 66.8063 128.61 66.5219 128.728C66.2376 128.846 65.9328 128.906 65.625 128.906V140.625H86.7188V128.906H79.6875C79.0659 128.906 78.4698 128.659 78.0302 128.22C77.5907 127.78 77.3438 127.184 77.3438 126.562Z" fill="#203D7A"/>
<path d="M97.686 89.4451C94.4941 92.128 90.7492 94.0732 86.7188 95.1418V96.0937C86.7188 99.2017 85.4841 102.182 83.2864 104.38C81.0887 106.578 78.108 107.812 75 107.812C71.892 107.812 68.9113 106.578 66.7136 104.38C64.5159 102.182 63.2812 99.2017 63.2812 96.0937V95.1418C59.2508 94.0732 55.5059 92.128 52.314 89.4451C47.4942 90.3682 43.1459 92.9399 40.0152 96.719C36.8845 100.498 35.1666 105.249 35.1562 110.156V133.594C35.1584 135.458 35.8999 137.245 37.2181 138.563C38.5362 139.881 40.3234 140.623 42.1875 140.625H60.9375V128.906H46.875C46.2534 128.906 45.6573 128.659 45.2177 128.22C44.7782 127.78 44.5312 127.184 44.5312 126.562V110.156H49.2188V124.219H64.6544L67.6254 121.247C68.1682 120.702 68.814 120.269 69.5252 119.974C70.2364 119.68 70.999 119.529 71.7688 119.531H77.3438C78.5865 119.533 79.7779 120.027 80.6567 120.906C81.5354 121.785 82.0298 122.976 82.0312 124.219H100.781V110.156H105.469V126.562C105.469 127.184 105.222 127.78 104.782 128.22C104.343 128.659 103.747 128.906 103.125 128.906H91.4062V140.625H107.812C109.677 140.623 111.464 139.881 112.782 138.563C114.1 137.245 114.842 135.458 114.844 133.594V110.156C114.833 105.249 113.115 100.498 109.985 96.719C106.854 92.9399 102.506 90.3682 97.686 89.4451Z" fill="#203D7A"/>
<path d="M42.1875 60.9375V51.5625C40.9443 51.5625 39.752 52.0564 38.8729 52.9354C37.9939 53.8145 37.5 55.0068 37.5 56.25C37.5 57.4932 37.9939 58.6855 38.8729 59.5646C39.752 60.4436 40.9443 60.9375 42.1875 60.9375Z" fill="#203D7A"/>
<path d="M103.125 42.1875H46.875V65.625H103.125V42.1875ZM70.2574 54.8476C69.8366 56.0399 69.1851 57.1376 68.34 58.0781C67.4949 59.0186 66.4729 59.7835 65.3323 60.329C64.1916 60.8745 62.9547 61.19 61.6921 61.2575C60.4295 61.325 59.166 61.1431 57.9737 60.7223C56.7814 60.3015 55.6836 59.65 54.7431 58.8049C53.8026 57.9598 53.0378 56.9378 52.4923 55.7971C51.9467 54.6565 51.6312 53.4196 51.5637 52.157C51.4963 50.8944 51.6781 49.6309 52.0989 48.4386C52.3058 47.8525 52.7371 47.3725 53.2978 47.1044C53.8585 46.8362 54.5028 46.8017 55.089 47.0086L68.8274 51.8575C69.4136 52.0644 69.8935 52.4957 70.1616 53.0564C70.4298 53.6171 70.4643 54.2614 70.2574 54.8476ZM92.025 60.7225C89.617 61.5723 86.9701 61.4308 84.6665 60.329C82.3629 59.2273 80.5913 57.2555 79.7414 54.8476C79.5346 54.2614 79.569 53.6171 79.8372 53.0564C80.1054 52.4957 80.5853 52.0644 81.1714 51.8575L94.9099 47.0086C95.496 46.8017 96.1403 46.8362 96.701 47.1044C97.2618 47.3725 97.693 47.8525 97.8999 48.4386C98.747 50.8465 98.6043 53.4922 97.5031 55.7951C96.4019 58.098 94.4323 59.87 92.0262 60.7225H92.025Z" fill="#203D7A"/>
<path d="M90.4664 56.3022C91.3071 56.0046 92.0519 55.4854 92.6221 54.7996C93.1922 54.1138 93.5666 53.2867 93.7057 52.4058L85.5026 55.3015C86.163 55.9002 86.9729 56.3093 87.8467 56.4854C88.7205 56.6616 89.6256 56.5983 90.4664 56.3022Z" fill="black"/>
</svg>
