<svg width="124" height="116" viewBox="0 0 124 116" fill="none" xmlns="http://www.w3.org/2000/svg">
<g clip-path="url(#clip0)">
<path d="M76.2819 76.5677C75.7543 76.4505 75.375 76.0248 75.3507 75.5226L75.003 68.1641C74.9835 67.7541 75.2048 67.3645 75.5841 67.1528C83.9918 62.4723 90.5856 53.7287 90.5856 42.879V27.439C90.5856 12.8482 77.7626 0.980469 62 0.980469C46.2374 0.980469 33.4144 12.8482 33.4144 27.439V42.879C33.4144 53.7039 39.8186 62.6706 48.4038 67.36C48.7879 67.5695 49.0116 67.9614 48.9922 68.3735L48.6518 75.5226C48.6275 76.0226 48.2482 76.4505 47.7206 76.5677C16.4823 83.514 0 88.1448 0 105.198V113.599C0 114.842 1.08925 115.851 2.43137 115.851H121.569C122.911 115.851 124 114.842 124 113.599V105.198C124 88.4804 108.578 83.755 76.2819 76.5677ZM65.6471 51.697C65.6349 53.5552 64.0059 55.0553 62 55.0553C59.9941 55.0553 58.3651 53.5552 58.3529 51.697V51.4042C58.3529 49.5257 60.0038 48.0257 62 48.0257C63.9986 48.0257 65.6471 49.528 65.6471 51.4042V51.697ZM65.9145 37.3427C65.7516 37.3922 65.6471 37.5094 65.6471 37.6445V40.4037C65.6471 42.2686 64.0132 43.7822 62 43.7822C59.9868 43.7822 58.3529 42.2686 58.3529 40.4037V37.6445C58.3529 34.5475 60.5144 31.8672 63.6485 30.9189C65.9558 30.2207 67.4487 28.1598 67.2809 25.9074C67.101 23.4906 64.9954 21.5423 62.3842 21.3757C59.2647 21.1774 56.7045 23.4478 56.7045 26.261C56.7045 28.135 55.0609 29.6396 53.0574 29.6396C51.0442 29.6396 49.4104 28.1283 49.4104 26.261C49.4104 19.6751 55.4158 14.1523 62.885 14.6343C69.1093 15.0307 74.1277 19.6774 74.558 25.4412C74.9568 30.7883 71.4021 35.6804 65.9145 37.3427Z" fill="#203D7A"/>
</g>
<defs>
<clipPath id="clip0">
<rect width="124" height="114.871" fill="white" transform="translate(0 0.980469)"/>
</clipPath>
</defs>
</svg>
